<svg xmlns="http://www.w3.org/2000/svg" viewBox="0 0 900 470" width="900" height="470"><g transform="translate(346.00,32.04) scale(1.0400)"><path d="M 180.45 100.00 L 180.51 101.41 L 180.54 102.81 L 180.54 104.22 L 180.50 105.63 L 180.43 107.04 L 180.33 108.44 L 180.19 109.85 L 180.03 111.25 L 179.83 112.64 L 179.61 114.04 L 179.35 115.42 L 179.06 116.80 L 178.73 118.18 L 178.38 119.54 L 177.99 120.90 L 177.58 122.24 L 177.12 123.58 L 176.64 124.90 L 176.12 126.21 L 175.57 127.51 L 174.99 128.79 L 174.37 130.05 L 173.72 131.29 L 173.04 132.52 L 172.33 133.73 L 171.59 134.92 L 170.82 136.08 L 170.01 137.23 L 169.18 138.35 L 168.33 139.45 L 167.45 140.53 L 166.54 141.58 L 165.61 142.61 L 164.66 143.62 L 163.70 144.60 L 162.71 145.56 L 161.71 146.50 L 160.70 147.42 L 159.67 148.32 L 158.63 149.20 L 157.58 150.06 L 156.53 150.90 L 155.46 151.72 L 154.40 152.53 L 153.32 153.32 L 152.24 154.10 L 151.16 154.87 L 150.08 155.62 L 148.99 156.36 L 147.91 157.09 L 146.82 157.81 L 145.72 158.52 L 144.63 159.22 L 143.53 159.92 L 142.43 160.60 L 141.32 161.27 L 140.21 161.93 L 139.10 162.57 L 137.98 163.21 L 136.85 163.83 L 135.72 164.44 L 134.58 165.03 L 133.43 165.60 L 132.27 166.16 L 131.10 166.69 L 129.92 167.20 L 128.73 167.69 L 127.54 168.16 L 126.33 168.59 L 125.11 169.00 L 123.89 169.38 L 122.66 169.73 L 121.42 170.05 L 120.17 170.34 L 118.91 170.59 L 117.66 170.81 L 116.39 171.00 L 115.12 171.16 L 113.86 171.28 L 112.59 171.38 L 111.32 171.44 L 110.05 171.48 L 108.78 171.49 L 107.51 171.48 L 106.25 171.45 L 104.99 171.39 L 103.74 171.32 L 102.49 171.23 L 101.24 171.14 L 100.00 171.03 L 98.76 170.92 L 97.53 170.80 L 96.30 170.68 L 95.07 170.57 L 93.84 170.45 L 92.61 170.35 L 91.37 170.25 L 90.14 170.16 L 88.90 170.08 L 87.66 170.01 L 86.40 169.95 L 85.14 169.91 L 83.87 169.87 L 82.58 169.85 L 81.29 169.84 L 79.98 169.83 L 78.65 169.83 L 77.31 169.84 L 75.95 169.84 L 74.58 169.85 L 73.19 169.85 L 71.78 169.84 L 70.36 169.82 L 68.93 169.79 L 67.48 169.73 L 66.03 169.66 L 64.56 169.55 L 63.09 169.42 L 61.61 169.25 L 60.14 169.04 L 58.66 168.79 L 57.20 168.50 L 55.74 168.16 L 54.29 167.77 L 52.86 167.32 L 51.45 166.82 L 50.06 166.27 L 48.70 165.66 L 47.38 164.99 L 46.08 164.26 L 44.82 163.47 L 43.61 162.63 L 42.43 161.73 L 41.31 160.78 L 40.23 159.77 L 39.20 158.72 L 38.22 157.61 L 37.30 156.46 L 36.42 155.27 L 35.61 154.03 L 34.84 152.76 L 34.13 151.46 L 33.47 150.13 L 32.87 148.77 L 32.31 147.40 L 31.81 146.00 L 31.35 144.58 L 30.93 143.16 L 30.56 141.72 L 30.23 140.28 L 29.93 138.84 L 29.67 137.39 L 29.44 135.95 L 29.24 134.51 L 29.07 133.08 L 28.92 131.65 L 28.79 130.23 L 28.68 128.82 L 28.59 127.41 L 28.51 126.02 L 28.44 124.64 L 28.38 123.27 L 28.33 121.91 L 28.29 120.56 L 28.25 119.22 L 28.23 117.90 L 28.20 116.58 L 28.18 115.27 L 28.17 113.96 L 28.16 112.67 L 28.16 111.38 L 28.16 110.10 L 28.17 108.82 L 28.18 107.55 L 28.20 106.28 L 28.23 105.02 L 28.27 103.76 L 28.32 102.50 L 28.38 101.25 L 28.45 100.00 L 28.54 98.75 L 28.63 97.51 L 28.74 96.27 L 28.87 95.03 L 29.01 93.79 L 29.16 92.55 L 29.33 91.32 L 29.51 90.09 L 29.70 88.87 L 29.91 87.64 L 30.14 86.42 L 30.38 85.20 L 30.63 83.98 L 30.90 82.77 L 31.17 81.56 L 31.46 80.35 L 31.77 79.14 L 32.08 77.93 L 32.40 76.72 L 32.74 75.52 L 33.08 74.31 L 33.44 73.11 L 33.81 71.90 L 34.18 70.70 L 34.57 69.49 L 34.97 68.28 L 35.38 67.08 L 35.81 65.87 L 36.24 64.66 L 36.69 63.45 L 37.16 62.24 L 37.64 61.03 L 38.13 59.82 L 38.65 58.62 L 39.19 57.42 L 39.74 56.22 L 40.32 55.03 L 40.92 53.84 L 41.54 52.66 L 42.19 51.49 L 42.87 50.34 L 43.57 49.19 L 44.30 48.06 L 45.06 46.94 L 45.84 45.84 L 46.66 44.76 L 47.50 43.70 L 48.37 42.66 L 49.27 41.65 L 50.20 40.65 L 51.16 39.69 L 52.14 38.75 L 53.15 37.83 L 54.19 36.94 L 55.25 36.08 L 56.33 35.25 L 57.43 34.45 L 58.55 33.67 L 59.69 32.92 L 60.85 32.19 L 62.03 31.50 L 63.22 30.82 L 64.42 30.17 L 65.63 29.54 L 66.86 28.93 L 68.10 28.34 L 69.34 27.78 L 70.60 27.22 L 71.86 26.69 L 73.13 26.17 L 74.40 25.66 L 75.69 25.17 L 76.98 24.69 L 78.27 24.22 L 79.57 23.77 L 80.88 23.33 L 82.20 22.90 L 83.52 22.48 L 84.85 22.08 L 86.19 21.69 L 87.54 21.31 L 88.89 20.96 L 90.25 20.63 L 91.62 20.31 L 93.00 20.02 L 94.39 19.76 L 95.78 19.53 L 97.18 19.33 L 98.59 19.16 L 100.00 19.03 L 101.41 18.94 L 102.83 18.89 L 104.25 18.89 L 105.67 18.94 L 107.08 19.03 L 108.49 19.18 L 109.90 19.38 L 111.29 19.64 L 112.68 19.95 L 114.05 20.32 L 115.41 20.74 L 116.74 21.23 L 118.06 21.77 L 119.36 22.36 L 120.63 23.01 L 121.87 23.72 L 123.09 24.47 L 124.28 25.28 L 125.44 26.12 L 126.56 27.01 L 127.66 27.94 L 128.72 28.91 L 129.75 29.90 L 130.75 30.93 L 131.72 31.97 L 132.66 33.04 L 133.57 34.12 L 134.45 35.21 L 135.31 36.31 L 136.14 37.41 L 136.95 38.50 L 137.74 39.60 L 138.52 40.68 L 139.29 41.75 L 140.04 42.81 L 140.79 43.85 L 141.54 44.88 L 142.28 45.88 L 143.03 46.86 L 143.78 47.82 L 144.54 48.76 L 145.32 49.67 L 146.10 50.57 L 146.89 51.44 L 147.71 52.29 L 148.54 53.13 L 149.39 53.95 L 150.25 54.75 L 151.14 55.55 L 152.04 56.33 L 152.97 57.11 L 153.91 57.88 L 154.87 58.66 L 155.84 59.43 L 156.82 60.21 L 157.82 61.00 L 158.82 61.80 L 159.84 62.61 L 160.85 63.44 L 161.86 64.28 L 162.87 65.15 L 163.88 66.03 L 164.88 66.94 L 165.86 67.88 L 166.83 68.84 L 167.78 69.82 L 168.71 70.84 L 169.61 71.87 L 170.49 72.94 L 171.34 74.03 L 172.16 75.15 L 172.94 76.30 L 173.69 77.47 L 174.40 78.67 L 175.07 79.88 L 175.71 81.12 L 176.31 82.38 L 176.86 83.66 L 177.38 84.96 L 177.85 86.27 L 178.29 87.60 L 178.68 88.94 L 179.03 90.30 L 179.35 91.66 L 179.63 93.03 L 179.86 94.42 L 180.07 95.80 L 180.23 97.20 L 180.36 98.60 L 180.45 100.00 Z" fill="none" stroke="#0F3F6F" stroke-width="2.00" stroke-linejoin="round"/><path d="M 166.06 97.00 L 166.11 98.09 L 166.13 99.18 L 166.12 100.28 L 166.09 101.37 L 166.04 102.46 L 165.96 103.55 L 165.85 104.64 L 165.73 105.73 L 165.58 106.82 L 165.40 107.90 L 165.20 108.97 L 164.97 110.05 L 164.72 111.11 L 164.45 112.17 L 164.15 113.22 L 163.82 114.27 L 163.47 115.30 L 163.10 116.33 L 162.69 117.35 L 162.27 118.35 L 161.81 119.35 L 161.34 120.33 L 160.83 121.29 L 160.30 122.25 L 159.75 123.18 L 159.17 124.11 L 158.57 125.01 L 157.95 125.90 L 157.31 126.77 L 156.64 127.62 L 155.96 128.46 L 155.26 129.28 L 154.54 130.08 L 153.80 130.86 L 153.05 131.62 L 152.28 132.37 L 151.51 133.10 L 150.72 133.81 L 149.92 134.51 L 149.12 135.19 L 148.30 135.86 L 147.48 136.51 L 146.66 137.15 L 145.83 137.78 L 144.99 138.39 L 144.16 139.00 L 143.32 139.59 L 142.48 140.18 L 141.64 140.75 L 140.79 141.32 L 139.94 141.88 L 139.10 142.43 L 138.25 142.98 L 137.39 143.51 L 136.54 144.04 L 135.68 144.56 L 134.82 145.07 L 133.95 145.58 L 133.08 146.07 L 132.21 146.55 L 131.33 147.02 L 130.44 147.48 L 129.55 147.93 L 128.65 148.36 L 127.74 148.77 L 126.83 149.17 L 125.91 149.55 L 124.98 149.91 L 124.04 150.25 L 123.10 150.57 L 122.15 150.86 L 121.19 151.13 L 120.23 151.38 L 119.26 151.60 L 118.28 151.80 L 117.31 151.97 L 116.33 152.12 L 115.34 152.24 L 114.36 152.34 L 113.37 152.41 L 112.38 152.46 L 111.40 152.49 L 110.41 152.50 L 109.43 152.49 L 108.45 152.46 L 107.48 152.42 L 106.50 152.37 L 105.53 152.30 L 104.56 152.23 L 103.60 152.14 L 102.64 152.05 L 101.68 151.96 L 100.72 151.87 L 99.77 151.78 L 98.81 151.69 L 97.86 151.61 L 96.90 151.53 L 95.95 151.46 L 94.98 151.40 L 94.02 151.35 L 93.04 151.30 L 92.06 151.27 L 91.08 151.24 L 90.08 151.22 L 89.07 151.21 L 88.06 151.21 L 87.03 151.21 L 85.98 151.21 L 84.93 151.22 L 83.86 151.22 L 82.79 151.22 L 81.69 151.22 L 80.59 151.20 L 79.48 151.18 L 78.36 151.14 L 77.23 151.08 L 76.09 151.00 L 74.95 150.89 L 73.80 150.76 L 72.65 150.60 L 71.51 150.41 L 70.37 150.18 L 69.24 149.91 L 68.12 149.61 L 67.01 149.26 L 65.91 148.88 L 64.83 148.44 L 63.78 147.97 L 62.75 147.45 L 61.74 146.88 L 60.77 146.27 L 59.82 145.62 L 58.91 144.92 L 58.04 144.18 L 57.20 143.40 L 56.40 142.58 L 55.64 141.72 L 54.92 140.83 L 54.24 139.90 L 53.61 138.95 L 53.02 137.96 L 52.46 136.95 L 51.95 135.92 L 51.48 134.86 L 51.05 133.79 L 50.66 132.71 L 50.30 131.61 L 49.98 130.50 L 49.69 129.39 L 49.43 128.27 L 49.21 127.15 L 49.00 126.03 L 48.83 124.91 L 48.67 123.79 L 48.54 122.68 L 48.42 121.57 L 48.32 120.47 L 48.23 119.37 L 48.16 118.28 L 48.10 117.20 L 48.04 116.13 L 48.00 115.07 L 47.96 114.01 L 47.93 112.96 L 47.90 111.92 L 47.88 110.89 L 47.86 109.87 L 47.85 108.85 L 47.84 107.84 L 47.83 106.83 L 47.83 105.83 L 47.83 104.84 L 47.83 103.85 L 47.85 102.86 L 47.86 101.88 L 47.89 100.90 L 47.92 99.92 L 47.96 98.94 L 48.00 97.97 L 48.06 97.00 L 48.12 96.03 L 48.20 95.07 L 48.28 94.10 L 48.38 93.14 L 48.49 92.18 L 48.60 91.22 L 48.73 90.26 L 48.88 89.31 L 49.03 88.36 L 49.19 87.41 L 49.37 86.46 L 49.55 85.51 L 49.75 84.57 L 49.95 83.62 L 50.17 82.68 L 50.39 81.74 L 50.63 80.81 L 50.87 79.87 L 51.12 78.93 L 51.38 77.99 L 51.65 77.06 L 51.93 76.12 L 52.21 75.19 L 52.51 74.25 L 52.81 73.31 L 53.12 72.38 L 53.44 71.44 L 53.76 70.50 L 54.10 69.56 L 54.45 68.62 L 54.81 67.69 L 55.19 66.75 L 55.57 65.81 L 55.97 64.88 L 56.39 63.94 L 56.82 63.01 L 57.27 62.09 L 57.73 61.17 L 58.22 60.25 L 58.72 59.34 L 59.25 58.44 L 59.79 57.55 L 60.36 56.68 L 60.95 55.81 L 61.56 54.96 L 62.19 54.12 L 62.84 53.29 L 63.52 52.49 L 64.22 51.70 L 64.94 50.93 L 65.68 50.18 L 66.45 49.45 L 67.23 48.74 L 68.04 48.05 L 68.86 47.38 L 69.70 46.74 L 70.55 46.11 L 71.42 45.51 L 72.31 44.92 L 73.21 44.36 L 74.12 43.82 L 75.04 43.30 L 75.98 42.79 L 76.92 42.30 L 77.87 41.83 L 78.83 41.37 L 79.80 40.93 L 80.77 40.50 L 81.75 40.09 L 82.74 39.68 L 83.73 39.29 L 84.72 38.91 L 85.73 38.54 L 86.73 38.17 L 87.74 37.82 L 88.76 37.48 L 89.78 37.14 L 90.81 36.82 L 91.84 36.51 L 92.88 36.20 L 93.93 35.92 L 94.98 35.64 L 96.03 35.38 L 97.10 35.14 L 98.17 34.91 L 99.24 34.71 L 100.33 34.53 L 101.41 34.37 L 102.50 34.24 L 103.60 34.14 L 104.70 34.07 L 105.80 34.04 L 106.90 34.03 L 108.00 34.07 L 109.10 34.14 L 110.19 34.26 L 111.28 34.41 L 112.37 34.61 L 113.44 34.85 L 114.51 35.14 L 115.56 35.47 L 116.60 35.85 L 117.62 36.27 L 118.63 36.73 L 119.61 37.23 L 120.58 37.78 L 121.53 38.37 L 122.45 38.99 L 123.35 39.65 L 124.22 40.34 L 125.07 41.06 L 125.90 41.81 L 126.70 42.58 L 127.47 43.38 L 128.23 44.19 L 128.95 45.02 L 129.66 45.86 L 130.34 46.70 L 131.01 47.55 L 131.65 48.41 L 132.29 49.26 L 132.90 50.11 L 133.51 50.95 L 134.10 51.78 L 134.69 52.60 L 135.27 53.41 L 135.85 54.21 L 136.43 54.98 L 137.01 55.75 L 137.59 56.49 L 138.18 57.22 L 138.78 57.93 L 139.39 58.62 L 140.01 59.30 L 140.64 59.96 L 141.28 60.61 L 141.94 61.25 L 142.61 61.87 L 143.30 62.49 L 144.00 63.10 L 144.72 63.70 L 145.45 64.30 L 146.19 64.90 L 146.95 65.51 L 147.71 66.11 L 148.49 66.72 L 149.27 67.34 L 150.05 67.97 L 150.84 68.62 L 151.63 69.27 L 152.41 69.94 L 153.19 70.63 L 153.96 71.34 L 154.73 72.06 L 155.48 72.81 L 156.22 73.57 L 156.94 74.36 L 157.64 75.17 L 158.32 75.99 L 158.98 76.84 L 159.62 77.71 L 160.22 78.60 L 160.81 79.51 L 161.36 80.44 L 161.88 81.38 L 162.38 82.35 L 162.84 83.32 L 163.27 84.32 L 163.67 85.32 L 164.04 86.34 L 164.37 87.37 L 164.68 88.42 L 164.95 89.47 L 165.20 90.53 L 165.41 91.59 L 165.60 92.66 L 165.76 93.74 L 165.88 94.82 L 165.98 95.91 L 166.06 97.00 Z" fill="none" stroke="#0F3F6F" stroke-width="2.40" stroke-linejoin="round"/><path d="M 152.45 94.20 L 152.49 94.99 L 152.50 95.79 L 152.50 96.58 L 152.48 97.38 L 152.44 98.18 L 152.38 98.97 L 152.30 99.76 L 152.21 100.55 L 152.10 101.34 L 151.97 102.13 L 151.82 102.91 L 151.66 103.69 L 151.48 104.47 L 151.28 105.24 L 151.06 106.01 L 150.82 106.77 L 150.57 107.52 L 150.30 108.27 L 150.01 109.01 L 149.70 109.74 L 149.37 110.46 L 149.02 111.18 L 148.66 111.88 L 148.27 112.58 L 147.87 113.26 L 147.46 113.93 L 147.02 114.59 L 146.57 115.24 L 146.10 115.88 L 145.62 116.50 L 145.13 117.11 L 144.62 117.71 L 144.10 118.29 L 143.56 118.86 L 143.02 119.42 L 142.46 119.97 L 141.90 120.50 L 141.33 121.02 L 140.75 121.53 L 140.17 122.03 L 139.58 122.52 L 138.98 123.00 L 138.38 123.46 L 137.78 123.92 L 137.18 124.38 L 136.57 124.82 L 135.96 125.25 L 135.35 125.68 L 134.73 126.10 L 134.12 126.52 L 133.50 126.93 L 132.89 127.33 L 132.27 127.73 L 131.65 128.12 L 131.02 128.51 L 130.40 128.89 L 129.77 129.26 L 129.14 129.63 L 128.51 129.99 L 127.87 130.34 L 127.23 130.69 L 126.58 131.02 L 125.93 131.35 L 125.27 131.66 L 124.61 131.97 L 123.94 132.26 L 123.27 132.53 L 122.59 132.80 L 121.91 133.04 L 121.22 133.28 L 120.53 133.49 L 119.83 133.69 L 119.13 133.87 L 118.42 134.04 L 117.71 134.18 L 117.00 134.31 L 116.28 134.42 L 115.57 134.51 L 114.85 134.58 L 114.13 134.64 L 113.41 134.68 L 112.69 134.70 L 111.97 134.71 L 111.26 134.70 L 110.54 134.69 L 109.83 134.66 L 109.12 134.62 L 108.41 134.57 L 107.70 134.52 L 107.00 134.46 L 106.30 134.40 L 105.60 134.33 L 104.90 134.27 L 104.20 134.20 L 103.51 134.14 L 102.81 134.08 L 102.11 134.02 L 101.41 133.97 L 100.71 133.92 L 100.00 133.88 L 99.29 133.85 L 98.58 133.82 L 97.86 133.79 L 97.13 133.78 L 96.40 133.76 L 95.66 133.76 L 94.91 133.75 L 94.15 133.75 L 93.38 133.75 L 92.61 133.74 L 91.82 133.74 L 91.03 133.72 L 90.23 133.71 L 89.42 133.68 L 88.61 133.64 L 87.79 133.59 L 86.96 133.53 L 86.13 133.44 L 85.30 133.34 L 84.47 133.22 L 83.65 133.07 L 82.82 132.90 L 82.00 132.70 L 81.19 132.47 L 80.38 132.22 L 79.59 131.93 L 78.81 131.61 L 78.04 131.26 L 77.30 130.88 L 76.57 130.47 L 75.86 130.02 L 75.18 129.54 L 74.51 129.04 L 73.88 128.50 L 73.27 127.93 L 72.69 127.33 L 72.14 126.71 L 71.61 126.06 L 71.12 125.39 L 70.66 124.70 L 70.22 123.98 L 69.82 123.25 L 69.45 122.50 L 69.10 121.74 L 68.78 120.96 L 68.49 120.17 L 68.23 119.38 L 67.99 118.58 L 67.77 117.77 L 67.58 116.96 L 67.41 116.15 L 67.26 115.33 L 67.12 114.52 L 67.00 113.71 L 66.90 112.90 L 66.81 112.09 L 66.73 111.29 L 66.66 110.50 L 66.60 109.71 L 66.55 108.92 L 66.51 108.14 L 66.47 107.37 L 66.44 106.60 L 66.41 105.84 L 66.38 105.08 L 66.36 104.33 L 66.34 103.59 L 66.33 102.84 L 66.32 102.11 L 66.31 101.37 L 66.30 100.65 L 66.30 99.92 L 66.30 99.20 L 66.31 98.48 L 66.32 97.76 L 66.34 97.04 L 66.36 96.33 L 66.38 95.62 L 66.42 94.91 L 66.45 94.20 L 66.50 93.49 L 66.55 92.79 L 66.62 92.08 L 66.69 91.38 L 66.76 90.68 L 66.85 89.98 L 66.94 89.28 L 67.05 88.58 L 67.16 87.89 L 67.28 87.20 L 67.40 86.50 L 67.54 85.81 L 67.68 85.12 L 67.83 84.43 L 67.99 83.75 L 68.16 83.06 L 68.33 82.38 L 68.51 81.69 L 68.69 81.01 L 68.88 80.33 L 69.08 79.64 L 69.28 78.96 L 69.49 78.28 L 69.71 77.60 L 69.93 76.91 L 70.16 76.23 L 70.39 75.55 L 70.64 74.87 L 70.89 74.18 L 71.14 73.50 L 71.41 72.82 L 71.68 72.13 L 71.97 71.45 L 72.26 70.77 L 72.57 70.09 L 72.89 69.42 L 73.22 68.74 L 73.56 68.07 L 73.92 67.41 L 74.29 66.75 L 74.67 66.10 L 75.07 65.45 L 75.49 64.81 L 75.92 64.18 L 76.36 63.56 L 76.83 62.95 L 77.31 62.36 L 77.80 61.77 L 78.31 61.20 L 78.84 60.64 L 79.38 60.09 L 79.94 59.56 L 80.51 59.05 L 81.10 58.55 L 81.70 58.06 L 82.31 57.59 L 82.93 57.14 L 83.57 56.70 L 84.21 56.28 L 84.87 55.87 L 85.53 55.47 L 86.20 55.09 L 86.88 54.72 L 87.57 54.37 L 88.27 54.02 L 88.96 53.69 L 89.67 53.37 L 90.38 53.06 L 91.09 52.76 L 91.81 52.46 L 92.53 52.18 L 93.26 51.90 L 93.98 51.63 L 94.72 51.37 L 95.45 51.11 L 96.19 50.86 L 96.94 50.62 L 97.69 50.39 L 98.44 50.16 L 99.20 49.94 L 99.96 49.73 L 100.72 49.54 L 101.49 49.35 L 102.27 49.17 L 103.05 49.01 L 103.83 48.87 L 104.62 48.74 L 105.41 48.63 L 106.20 48.53 L 107.00 48.46 L 107.80 48.41 L 108.60 48.39 L 109.40 48.39 L 110.20 48.41 L 111.00 48.47 L 111.80 48.55 L 112.59 48.66 L 113.38 48.81 L 114.16 48.98 L 114.94 49.19 L 115.70 49.43 L 116.46 49.70 L 117.20 50.00 L 117.94 50.33 L 118.66 50.70 L 119.36 51.09 L 120.05 51.51 L 120.73 51.96 L 121.38 52.43 L 122.02 52.93 L 122.64 53.45 L 123.25 53.99 L 123.83 54.54 L 124.40 55.11 L 124.95 55.70 L 125.49 56.29 L 126.01 56.90 L 126.51 57.51 L 127.00 58.12 L 127.47 58.74 L 127.94 59.35 L 128.39 59.96 L 128.84 60.57 L 129.28 61.17 L 129.71 61.77 L 130.14 62.35 L 130.56 62.93 L 130.99 63.49 L 131.42 64.05 L 131.85 64.59 L 132.28 65.12 L 132.72 65.63 L 133.17 66.14 L 133.62 66.63 L 134.08 67.12 L 134.55 67.59 L 135.03 68.06 L 135.52 68.52 L 136.03 68.97 L 136.54 69.42 L 137.06 69.86 L 137.59 70.30 L 138.13 70.74 L 138.68 71.19 L 139.23 71.63 L 139.79 72.08 L 140.35 72.54 L 140.92 73.00 L 141.49 73.48 L 142.06 73.96 L 142.63 74.45 L 143.19 74.96 L 143.75 75.48 L 144.30 76.01 L 144.84 76.55 L 145.37 77.12 L 145.89 77.69 L 146.40 78.28 L 146.89 78.89 L 147.36 79.51 L 147.82 80.14 L 148.26 80.79 L 148.68 81.46 L 149.08 82.14 L 149.45 82.83 L 149.81 83.53 L 150.14 84.24 L 150.45 84.96 L 150.74 85.70 L 151.00 86.44 L 151.25 87.19 L 151.47 87.95 L 151.66 88.72 L 151.84 89.49 L 151.99 90.26 L 152.13 91.04 L 152.24 91.83 L 152.33 92.62 L 152.40 93.41 L 152.45 94.20 Z" fill="none" stroke="#0F3F6F" stroke-width="2.90" stroke-linejoin="round"/><path d="M 137.39 91.60 L 137.41 92.08 L 137.42 92.56 L 137.41 93.04 L 137.40 93.52 L 137.37 93.99 L 137.34 94.47 L 137.29 94.95 L 137.24 95.43 L 137.17 95.90 L 137.09 96.38 L 137.00 96.85 L 136.91 97.32 L 136.80 97.79 L 136.68 98.25 L 136.55 98.71 L 136.40 99.17 L 136.25 99.63 L 136.09 100.08 L 135.91 100.52 L 135.73 100.96 L 135.53 101.40 L 135.33 101.83 L 135.11 102.26 L 134.88 102.68 L 134.64 103.09 L 134.39 103.50 L 134.13 103.90 L 133.87 104.29 L 133.59 104.67 L 133.30 105.05 L 133.01 105.42 L 132.70 105.79 L 132.39 106.14 L 132.07 106.49 L 131.75 106.83 L 131.42 107.16 L 131.08 107.49 L 130.74 107.80 L 130.40 108.12 L 130.05 108.42 L 129.69 108.72 L 129.34 109.01 L 128.98 109.30 L 128.62 109.58 L 128.25 109.85 L 127.89 110.13 L 127.52 110.39 L 127.16 110.65 L 126.79 110.91 L 126.42 111.17 L 126.05 111.42 L 125.67 111.66 L 125.30 111.90 L 124.93 112.14 L 124.55 112.38 L 124.17 112.61 L 123.79 112.84 L 123.41 113.06 L 123.03 113.28 L 122.64 113.50 L 122.25 113.70 L 121.86 113.91 L 121.47 114.11 L 121.07 114.30 L 120.67 114.48 L 120.27 114.66 L 119.86 114.83 L 119.45 114.99 L 119.03 115.14 L 118.62 115.28 L 118.20 115.41 L 117.78 115.53 L 117.35 115.64 L 116.92 115.74 L 116.49 115.83 L 116.06 115.91 L 115.63 115.98 L 115.19 116.04 L 114.76 116.08 L 114.32 116.12 L 113.89 116.15 L 113.45 116.17 L 113.02 116.18 L 112.58 116.18 L 112.15 116.17 L 111.72 116.16 L 111.29 116.14 L 110.86 116.11 L 110.43 116.08 L 110.00 116.05 L 109.57 116.01 L 109.15 115.97 L 108.72 115.94 L 108.30 115.90 L 107.88 115.86 L 107.45 115.82 L 107.03 115.79 L 106.61 115.75 L 106.18 115.72 L 105.75 115.69 L 105.32 115.67 L 104.89 115.65 L 104.45 115.63 L 104.01 115.61 L 103.57 115.60 L 103.12 115.59 L 102.67 115.57 L 102.21 115.56 L 101.75 115.55 L 101.29 115.54 L 100.81 115.53 L 100.34 115.51 L 99.86 115.49 L 99.38 115.46 L 98.89 115.43 L 98.40 115.39 L 97.90 115.34 L 97.41 115.28 L 96.91 115.21 L 96.42 115.12 L 95.92 115.03 L 95.43 114.91 L 94.94 114.79 L 94.46 114.64 L 93.98 114.48 L 93.51 114.30 L 93.04 114.10 L 92.59 113.89 L 92.14 113.66 L 91.70 113.40 L 91.28 113.13 L 90.87 112.84 L 90.48 112.54 L 90.10 112.21 L 89.73 111.87 L 89.38 111.51 L 89.05 111.14 L 88.73 110.75 L 88.44 110.35 L 88.15 109.93 L 87.89 109.50 L 87.64 109.07 L 87.41 108.62 L 87.20 108.16 L 87.01 107.70 L 86.82 107.23 L 86.66 106.76 L 86.51 106.28 L 86.37 105.80 L 86.25 105.31 L 86.14 104.83 L 86.04 104.34 L 85.95 103.86 L 85.87 103.37 L 85.80 102.89 L 85.73 102.40 L 85.68 101.92 L 85.63 101.45 L 85.58 100.97 L 85.54 100.50 L 85.51 100.03 L 85.48 99.57 L 85.45 99.11 L 85.43 98.65 L 85.41 98.19 L 85.39 97.74 L 85.37 97.29 L 85.36 96.84 L 85.34 96.39 L 85.33 95.95 L 85.33 95.51 L 85.32 95.07 L 85.32 94.63 L 85.32 94.19 L 85.32 93.76 L 85.33 93.33 L 85.34 92.89 L 85.35 92.46 L 85.37 92.03 L 85.39 91.60 L 85.42 91.17 L 85.45 90.74 L 85.49 90.32 L 85.53 89.89 L 85.57 89.46 L 85.62 89.04 L 85.68 88.61 L 85.74 88.19 L 85.81 87.77 L 85.88 87.35 L 85.96 86.93 L 86.04 86.51 L 86.13 86.09 L 86.22 85.67 L 86.32 85.25 L 86.42 84.84 L 86.52 84.42 L 86.63 84.01 L 86.75 83.59 L 86.87 83.18 L 86.99 82.77 L 87.11 82.35 L 87.24 81.94 L 87.38 81.53 L 87.51 81.11 L 87.66 80.70 L 87.80 80.29 L 87.95 79.88 L 88.11 79.46 L 88.27 79.05 L 88.43 78.64 L 88.60 78.23 L 88.78 77.82 L 88.96 77.41 L 89.15 77.00 L 89.35 76.60 L 89.55 76.19 L 89.76 75.79 L 89.98 75.39 L 90.21 75.00 L 90.45 74.60 L 90.69 74.22 L 90.95 73.83 L 91.21 73.46 L 91.48 73.08 L 91.77 72.72 L 92.06 72.36 L 92.36 72.01 L 92.67 71.67 L 92.99 71.33 L 93.32 71.00 L 93.66 70.69 L 94.01 70.38 L 94.36 70.08 L 94.72 69.78 L 95.09 69.50 L 95.47 69.23 L 95.86 68.96 L 96.25 68.71 L 96.64 68.46 L 97.04 68.22 L 97.45 68.00 L 97.86 67.77 L 98.27 67.56 L 98.69 67.35 L 99.12 67.15 L 99.54 66.96 L 99.97 66.77 L 100.40 66.59 L 100.83 66.41 L 101.27 66.24 L 101.71 66.08 L 102.15 65.91 L 102.59 65.76 L 103.03 65.60 L 103.48 65.46 L 103.93 65.31 L 104.38 65.17 L 104.84 65.04 L 105.29 64.91 L 105.75 64.79 L 106.22 64.67 L 106.68 64.56 L 107.15 64.46 L 107.62 64.37 L 108.09 64.28 L 108.56 64.21 L 109.04 64.14 L 109.52 64.09 L 110.00 64.05 L 110.48 64.02 L 110.96 64.01 L 111.45 64.01 L 111.93 64.02 L 112.41 64.06 L 112.89 64.11 L 113.37 64.17 L 113.84 64.26 L 114.31 64.36 L 114.78 64.48 L 115.24 64.62 L 115.70 64.78 L 116.15 64.96 L 116.59 65.16 L 117.03 65.37 L 117.46 65.60 L 117.87 65.85 L 118.28 66.11 L 118.68 66.39 L 119.07 66.68 L 119.45 66.98 L 119.82 67.30 L 120.18 67.62 L 120.53 67.96 L 120.86 68.30 L 121.19 68.65 L 121.51 69.01 L 121.82 69.37 L 122.12 69.73 L 122.42 70.09 L 122.71 70.45 L 122.99 70.82 L 123.26 71.17 L 123.54 71.53 L 123.80 71.88 L 124.07 72.23 L 124.34 72.58 L 124.60 72.91 L 124.86 73.24 L 125.13 73.57 L 125.40 73.89 L 125.67 74.20 L 125.94 74.51 L 126.22 74.81 L 126.50 75.10 L 126.79 75.39 L 127.08 75.67 L 127.38 75.95 L 127.68 76.23 L 127.99 76.51 L 128.30 76.78 L 128.62 77.05 L 128.94 77.33 L 129.27 77.60 L 129.60 77.88 L 129.93 78.15 L 130.27 78.44 L 130.61 78.72 L 130.94 79.02 L 131.28 79.31 L 131.62 79.62 L 131.95 79.93 L 132.28 80.25 L 132.60 80.58 L 132.92 80.91 L 133.24 81.25 L 133.54 81.61 L 133.84 81.97 L 134.13 82.34 L 134.41 82.72 L 134.68 83.10 L 134.93 83.50 L 135.18 83.90 L 135.41 84.31 L 135.63 84.73 L 135.84 85.16 L 136.04 85.59 L 136.22 86.03 L 136.39 86.47 L 136.54 86.92 L 136.69 87.37 L 136.81 87.83 L 136.93 88.29 L 137.03 88.76 L 137.12 89.23 L 137.20 89.70 L 137.27 90.17 L 137.32 90.65 L 137.36 91.12 L 137.39 91.60 Z" fill="none" stroke="#0F3F6F" stroke-width="3.40" stroke-linejoin="round"/><path d="M 123.51 90.00 L 123.53 90.40 L 123.54 90.81 L 123.52 91.21 L 123.49 91.61 L 123.43 92.02 L 123.36 92.41 L 123.26 92.81 L 123.15 93.20 L 123.01 93.58 L 122.86 93.95 L 122.69 94.32 L 122.50 94.67 L 122.29 95.02 L 122.06 95.35 L 121.82 95.67 L 121.56 95.97 L 121.28 96.26 L 121.00 96.54 L 120.70 96.79 L 120.39 97.04 L 120.07 97.27 L 119.75 97.48 L 119.42 97.68 L 119.09 97.87 L 118.76 98.05 L 118.42 98.21 L 118.08 98.37 L 117.74 98.51 L 117.40 98.65 L 117.07 98.78 L 116.73 98.89 L 116.39 99.00 L 116.05 99.10 L 115.71 99.19 L 115.37 99.27 L 115.04 99.34 L 114.70 99.41 L 114.36 99.46 L 114.02 99.51 L 113.68 99.54 L 113.35 99.57 L 113.01 99.59 L 112.67 99.60 L 112.34 99.60 L 112.00 99.60 L 111.67 99.58 L 111.33 99.55 L 111.00 99.52 L 110.67 99.48 L 110.34 99.43 L 110.01 99.36 L 109.68 99.29 L 109.36 99.22 L 109.03 99.13 L 108.71 99.03 L 108.39 98.93 L 108.07 98.82 L 107.76 98.70 L 107.44 98.57 L 107.13 98.44 L 106.82 98.29 L 106.51 98.15 L 106.19 97.99 L 105.88 97.83 L 105.57 97.66 L 105.25 97.49 L 104.93 97.32 L 104.59 97.16 L 104.23 97.00 L 103.75 96.93 L 103.76 96.44 L 103.67 96.05 L 103.56 95.69 L 103.45 95.34 L 103.34 95.00 L 103.23 94.66 L 103.12 94.33 L 103.02 94.00 L 102.93 93.66 L 102.85 93.33 L 102.77 93.00 L 102.70 92.67 L 102.63 92.34 L 102.58 92.00 L 102.53 91.67 L 102.49 91.34 L 102.47 91.00 L 102.44 90.67 L 102.43 90.33 L 102.43 90.00 L 102.44 89.67 L 102.45 89.33 L 102.47 89.00 L 102.51 88.67 L 102.55 88.33 L 102.60 88.00 L 102.66 87.67 L 102.73 87.34 L 102.81 87.01 L 102.89 86.69 L 102.99 86.36 L 103.09 86.03 L 103.21 85.71 L 103.33 85.39 L 103.46 85.07 L 103.60 84.75 L 103.74 84.43 L 103.90 84.11 L 104.06 83.80 L 104.24 83.49 L 104.42 83.18 L 104.61 82.87 L 104.81 82.56 L 105.02 82.25 L 105.25 81.95 L 105.48 81.65 L 105.72 81.36 L 105.98 81.07 L 106.24 80.79 L 106.53 80.52 L 106.82 80.26 L 107.13 80.01 L 107.45 79.77 L 107.78 79.55 L 108.12 79.35 L 108.48 79.16 L 108.84 79.00 L 109.22 78.85 L 109.60 78.72 L 109.99 78.62 L 110.39 78.53 L 110.79 78.47 L 111.19 78.42 L 111.59 78.40 L 112.00 78.39 L 112.40 78.41 L 112.81 78.44 L 113.21 78.50 L 113.61 78.57 L 114.00 78.67 L 114.39 78.78 L 114.77 78.91 L 115.14 79.06 L 115.50 79.23 L 115.85 79.41 L 116.20 79.62 L 116.53 79.84 L 116.84 80.07 L 117.14 80.33 L 117.43 80.60 L 117.70 80.88 L 117.95 81.18 L 118.18 81.49 L 118.40 81.81 L 118.59 82.15 L 118.76 82.50 L 118.90 82.85 L 119.02 83.22 L 119.10 83.61 L 119.07 84.06 L 119.53 84.12 L 119.89 84.27 L 120.23 84.45 L 120.56 84.65 L 120.87 84.88 L 121.17 85.12 L 121.45 85.39 L 121.72 85.67 L 121.97 85.97 L 122.20 86.29 L 122.42 86.61 L 122.62 86.96 L 122.80 87.31 L 122.96 87.67 L 123.10 88.04 L 123.22 88.42 L 123.32 88.81 L 123.40 89.20 L 123.47 89.60 L 123.51 90.00 Z" fill="#86EAE9"/></g><path d="M137.074 352.0Q136.79200000000003 352.0 136.79200000000003 351.43600000000004Q136.79200000000003 350.872 137.074 350.872Q140.74 350.872 141.868 349.603Q142.996 348.334 142.996 344.386V295.788Q142.996 292.498 142.33800000000002 290.947Q141.68 289.396 139.98800000000003 289.396Q138.57800000000003 289.396 135.66400000000002 290.712Q135.38200000000003 290.9 135.10000000000002 290.336Q134.818 289.772 135.19400000000002 289.678L147.22600000000003 283.944Q147.41400000000002 283.85 147.69600000000003 283.85Q147.88400000000001 283.85 148.21300000000002 284.08500000000004Q148.54200000000003 284.32 148.54200000000003 284.602V344.386Q148.54200000000003 348.334 149.57600000000002 349.603Q150.61 350.872 154.37000000000003 350.872Q154.65200000000002 350.872 154.65200000000002 351.43600000000004Q154.65200000000002 352.0 154.37000000000003 352.0Q152.77200000000002 352.0 150.51600000000002 351.906Q148.26000000000002 351.812 145.722 351.812Q143.27800000000002 351.812 140.97500000000002 351.906Q138.67200000000003 352.0 137.074 352.0Z M182.57000000000002 353.222Q177.02400000000003 353.222 172.88800000000003 350.496Q168.752 347.77 166.496 343.211Q164.24 338.652 164.24 333.388Q164.24 328.5 166.026 324.928Q167.812 321.356 170.82000000000002 319.053Q173.82800000000003 316.75 177.353 315.622Q180.87800000000001 314.494 184.26200000000003 314.494Q189.99600000000004 314.494 194.08500000000004 317.314Q198.17400000000004 320.134 200.336 324.552Q202.49800000000002 328.97 202.49800000000002 333.858Q202.49800000000002 339.874 199.77200000000002 344.198Q197.04600000000002 348.522 192.53400000000002 350.87199999999996Q188.02200000000002 353.222 182.57000000000002 353.222ZM185.29600000000002 351.436Q190.27800000000002 351.436 193.192 347.911Q196.10600000000002 344.386 196.10600000000002 336.49Q196.10600000000002 330.568 194.17900000000003 326.009Q192.252 321.45 188.86800000000002 318.865Q185.48400000000004 316.28 181.16000000000003 316.28Q176.17800000000003 316.28 173.358 319.946Q170.538 323.612 170.538 330.474Q170.538 336.208 172.418 341.002Q174.29800000000003 345.796 177.63500000000005 348.616Q180.97200000000004 351.436 185.29600000000002 351.436Z M249.68600000000004 315.716Q249.87400000000002 315.716 249.87400000000002 316.28Q249.87400000000002 316.844 249.68600000000004 316.844Q247.336 316.844 245.69100000000003 318.301Q244.04600000000002 319.758 242.44800000000004 323.706L230.69800000000004 351.906Q230.604 352.282 229.711 352.282Q228.81800000000004 352.282 228.63000000000002 351.906L215.47000000000003 323.51800000000003Q213.49600000000004 319.288 212.22700000000003 318.06600000000003Q210.95800000000003 316.844 209.17200000000003 316.844Q208.89000000000001 316.844 208.89000000000001 316.28Q208.89000000000001 315.716 209.17200000000003 315.716Q210.58200000000002 315.716 212.22700000000003 315.81Q213.872 315.904 215.65800000000002 315.904Q218.854 315.904 221.204 315.81Q223.55400000000003 315.716 225.52800000000002 315.716Q225.81000000000003 315.716 225.81000000000003 316.28Q225.81000000000003 316.844 225.52800000000002 316.844Q222.61400000000003 316.844 220.92200000000003 317.549Q219.23000000000002 318.254 220.26400000000004 320.51L232.29600000000002 346.078L229.57000000000002 349.932L240.56800000000004 323.236Q241.978 319.852 240.33300000000003 318.34799999999996Q238.68800000000002 316.844 233.8 316.844Q233.61200000000002 316.844 233.61200000000002 316.28Q233.61200000000002 315.716 233.8 315.716Q236.05600000000004 315.716 238.07700000000003 315.81Q240.098 315.904 243.29400000000004 315.904Q245.26800000000003 315.904 246.53700000000003 315.81Q247.80600000000004 315.716 249.68600000000004 315.716Z M273.84400000000005 353.128Q268.20400000000006 353.128 264.35 350.543Q260.49600000000004 347.958 258.5690000000001 343.822Q256.64200000000005 339.686 256.64200000000005 335.08Q256.64200000000005 329.346 259.27400000000006 324.78700000000003Q261.90600000000006 320.228 266.46500000000003 317.549Q271.02400000000006 314.87 276.47600000000006 314.87Q281.83400000000006 314.87 284.6070000000001 317.69Q287.38000000000005 320.51 287.38000000000005 325.586Q287.38000000000005 326.808 287.14500000000004 327.419Q286.91 328.03 286.25200000000007 328.03H280.98800000000006Q281.36400000000003 322.296 279.29600000000005 319.523Q277.22800000000007 316.75 273.374 316.75Q268.39200000000005 316.75 265.619 320.698Q262.84600000000006 324.646 262.84600000000006 331.508Q262.84600000000006 336.866 264.538 341.00199999999995Q266.23 345.138 269.52000000000004 347.488Q272.81000000000006 349.838 277.51000000000005 349.838Q280.706 349.838 282.774 348.898Q284.84200000000004 347.958 286.91 346.736Q287.09800000000007 346.548 287.427 346.971Q287.75600000000003 347.394 287.56800000000004 347.676Q284.278 350.59 280.84700000000004 351.859Q277.41600000000005 353.128 273.84400000000005 353.128ZM261.15400000000005 328.124 261.06000000000006 326.902 282.398 326.526V328.03Z M341.90000000000003 353.128Q335.50800000000004 353.128 331.466 350.355Q327.42400000000004 347.582 325.49700000000007 343.305Q323.57000000000005 339.028 323.57000000000005 334.61Q323.57000000000005 329.91 325.403 326.244Q327.23600000000005 322.578 330.244 320.03999999999996Q333.252 317.502 336.918 316.18600000000004Q340.58400000000006 314.87 344.062 314.87Q346.788 314.87 349.279 315.575Q351.77000000000004 316.28 353.4150000000001 317.596Q355.06000000000006 318.912 355.06000000000006 320.604Q355.06000000000006 321.826 354.21400000000006 322.71900000000005Q353.36800000000005 323.612 351.77000000000004 323.612Q350.266 323.612 349.279 322.672Q348.29200000000003 321.73199999999997 347.634 320.51Q346.6 318.818 345.19000000000005 317.784Q343.78000000000003 316.75 340.96000000000004 316.75Q335.60200000000003 316.75 332.68800000000005 320.933Q329.77400000000006 325.116 329.77400000000006 331.79Q329.77400000000006 336.584 331.41900000000004 340.72Q333.064 344.856 336.54200000000003 347.347Q340.02000000000004 349.838 345.56600000000003 349.838Q348.10400000000004 349.838 350.548 349.18Q352.992 348.522 355.15400000000005 346.736Q355.34200000000004 346.548 355.67100000000005 346.924Q356.00000000000006 347.3 355.812 347.488Q352.52200000000005 350.402 349.232 351.765Q345.942 353.128 341.90000000000003 353.128Z M391.62600000000003 352.564Q391.25 352.752 390.874 352.752Q389.65200000000004 352.752 388.524 350.731Q387.396 348.71 387.396 344.856V327.09Q387.396 321.262 385.751 318.91200000000003Q384.106 316.562 381.474 316.562Q379.124 316.562 377.62 317.73699999999997Q376.116 318.912 375.411 320.51Q374.706 322.108 374.42400000000004 323.51800000000003Q374.142 324.834 373.48400000000004 326.103Q372.826 327.372 370.85200000000003 327.372Q369.254 327.372 368.502 326.47900000000004Q367.75 325.586 367.75 324.552Q367.75 322.766 369.48900000000003 321.074Q371.228 319.382 373.90700000000004 317.925Q376.586 316.468 379.547 315.622Q382.50800000000004 314.776 384.858 314.776Q388.712 314.776 390.68600000000004 317.267Q392.66 319.758 392.66 324.27V341.848Q392.66 345.138 393.50600000000003 346.642Q394.35200000000003 348.146 396.232 348.146Q397.92400000000004 348.146 400.932 346.924Q401.40200000000004 346.736 401.59000000000003 347.253Q401.778 347.77 401.308 347.958ZM374.706 352.658Q371.134 352.658 369.254 350.731Q367.374 348.804 367.374 346.172Q367.374 344.292 368.361 342.741Q369.348 341.19 371.51 339.874Q373.672 338.558 377.05600000000004 337.336L388.336 333.106L388.618 334.328L378.654 338.182Q376.962 338.84 375.834 339.686Q374.706 340.532 374.189 341.56600000000003Q373.672 342.6 373.672 343.822Q373.672 345.984 375.082 347.582Q376.492 349.18 378.93600000000004 349.18Q379.87600000000003 349.18 380.91 348.898Q381.944 348.616 383.44800000000004 347.676L389.37 344.104L389.558 345.326L382.60200000000003 349.838Q380.346 351.342 378.51300000000003 352.0Q376.68 352.658 374.706 352.658Z M434.302 352.0Q434.02 352.0 434.02 351.43600000000004Q434.02 350.872 434.302 350.872Q437.968 350.872 439.049 349.603Q440.13 348.334 440.13 344.386V329.158Q440.13 323.51800000000003 438.062 320.933Q435.994 318.348 431.482 318.348Q428.098 318.348 424.526 320.51Q420.954 322.672 418.416 326.432L418.04 325.304Q422.176 319.758 426.265 317.126Q430.354 314.494 434.584 314.494Q439.754 314.494 442.621 317.361Q445.488 320.228 445.488 325.962V344.386Q445.488 348.334 446.56899999999996 349.603Q447.65 350.872 451.31600000000003 350.872Q451.598 350.872 451.598 351.43600000000004Q451.598 352.0 451.31600000000003 352.0Q449.718 352.0 447.509 351.906Q445.3 351.812 442.856 351.812Q440.412 351.812 438.15599999999995 351.906Q435.9 352.0 434.302 352.0ZM409.016 352.0Q408.734 352.0 408.734 351.43600000000004Q408.734 350.872 409.016 350.872Q412.682 350.872 413.76300000000003 349.603Q414.844 348.334 414.844 344.386V325.774Q414.844 322.672 414.139 321.21500000000003Q413.434 319.758 411.554 319.758Q410.614 319.758 409.345 320.134Q408.076 320.51 406.478 321.168Q406.102 321.262 405.86699999999996 320.79200000000003Q405.632 320.322 406.008 320.134L416.912 314.964Q417.194 314.87 417.476 314.87Q418.134 314.87 419.168 316.844Q420.202 318.818 420.202 322.578V344.386Q420.202 348.334 421.283 349.603Q422.364 350.872 426.03 350.872Q426.312 350.872 426.312 351.43600000000004Q426.312 352.0 426.03 352.0Q424.432 352.0 422.223 351.906Q420.014 351.812 417.57 351.812Q415.126 351.812 412.87 351.906Q410.614 352.0 409.016 352.0Z M500.00800000000004 353.222Q496.15400000000005 353.222 492.77000000000004 350.966Q489.386 348.71 487.365 344.71500000000003Q485.34400000000005 340.72 485.34400000000005 335.26800000000003Q485.34400000000005 329.91 487.365 326.009Q489.386 322.108 492.582 319.57Q495.778 317.032 499.538 315.76300000000003Q503.29800000000006 314.494 506.776 314.494Q510.06600000000003 314.494 512.98 315.622Q515.894 316.75 518.244 318.724L517.21 325.022Q514.86 321.356 511.946 318.865Q509.03200000000004 316.374 504.23800000000006 316.374Q498.504 316.374 494.97900000000004 320.463Q491.45400000000006 324.552 491.45400000000006 332.448Q491.45400000000006 337.806 493.052 341.707Q494.65000000000003 345.608 497.47 347.723Q500.29 349.838 503.67400000000004 349.838Q507.90400000000005 349.838 511.1940000000001 347.488Q514.484 345.138 517.398 341.848L518.1500000000001 342.506Q516.176 344.762 513.5440000000001 347.25300000000004Q510.91200000000003 349.744 507.57500000000005 351.483Q504.23800000000006 353.222 500.00800000000004 353.222ZM521.0640000000001 284.602V341.66Q521.0640000000001 345.044 521.816 346.548Q522.568 348.052 524.4480000000001 348.052Q525.388 348.052 526.657 347.817Q527.926 347.582 529.336 346.736Q529.806 346.548 530.041 347.065Q530.2760000000001 347.582 529.9000000000001 347.77L519.5600000000001 352.658Q519.1840000000001 352.846 518.808 352.846Q517.6800000000001 352.846 516.74 350.68399999999997Q515.8000000000001 348.522 515.8000000000001 344.386V295.882Q515.8000000000001 292.498 515.142 290.994Q514.484 289.49 512.6980000000001 289.49Q511.85200000000003 289.49 510.865 289.819Q509.87800000000004 290.148 508.374 290.806Q507.99800000000005 290.994 507.76300000000003 290.43Q507.528 289.866 507.81000000000006 289.772L519.748 283.944Q519.936 283.85 520.2180000000001 283.85Q520.5 283.85 520.782 284.08500000000004Q521.0640000000001 284.32 521.0640000000001 284.602Z M555.0920000000001 353.222Q549.546 353.222 545.4100000000001 350.496Q541.274 347.77 539.018 343.211Q536.7620000000001 338.652 536.7620000000001 333.388Q536.7620000000001 328.5 538.548 324.928Q540.3340000000001 321.356 543.3420000000001 319.053Q546.35 316.75 549.875 315.622Q553.4000000000001 314.494 556.784 314.494Q562.518 314.494 566.607 317.314Q570.696 320.134 572.8580000000001 324.552Q575.0200000000001 328.97 575.0200000000001 333.858Q575.0200000000001 339.874 572.2940000000001 344.198Q569.568 348.522 565.056 350.87199999999996Q560.5440000000001 353.222 555.0920000000001 353.222ZM557.8180000000001 351.436Q562.8000000000001 351.436 565.714 347.911Q568.628 344.386 568.628 336.49Q568.628 330.568 566.701 326.009Q564.774 321.45 561.3900000000001 318.865Q558.0060000000001 316.28 553.682 316.28Q548.7 316.28 545.8800000000001 319.946Q543.0600000000001 323.612 543.0600000000001 330.474Q543.0600000000001 336.208 544.94 341.002Q546.82 345.796 550.157 348.616Q553.494 351.436 557.8180000000001 351.436Z M624.652 353.128Q622.3960000000001 353.128 620.328 352.423Q618.26 351.718 616.944 350.026Q615.628 348.334 615.628 345.42V323.33Q615.628 321.074 615.346 319.946Q615.064 318.818 614.03 318.489Q612.996 318.15999999999997 610.8340000000001 318.15999999999997Q610.458 318.15999999999997 610.458 317.549Q610.458 316.938 610.8340000000001 316.938Q614.594 316.844 616.991 314.87Q619.388 312.896 619.6700000000001 309.794Q619.6700000000001 309.512 620.375 309.512Q621.08 309.512 621.08 309.794V342.224Q621.08 346.078 623.0070000000001 347.95799999999997Q624.934 349.838 628.506 349.838Q630.95 349.838 632.877 349.039Q634.804 348.24 636.0260000000001 347.206Q636.402 347.018 636.731 347.441Q637.0600000000001 347.864 636.684 348.146Q633.206 350.778 630.433 351.953Q627.66 353.128 624.652 353.128ZM633.77 320.322Q630.104 319.382 626.72 319.1Q623.336 318.818 619.482 318.818V316.75Q623.242 316.75 626.72 316.46799999999996Q630.198 316.186 634.1460000000001 315.81Q634.3340000000001 315.81 634.569 316.46799999999996Q634.804 317.126 634.804 318.06600000000003Q634.804 318.724 634.475 319.57Q634.1460000000001 320.416 633.77 320.322Z M644.486 352.0Q644.2040000000001 352.0 644.2040000000001 351.43600000000004Q644.2040000000001 350.872 644.486 350.872Q648.152 350.872 649.28 349.603Q650.408 348.334 650.408 344.386V295.788Q650.408 292.498 649.75 290.947Q649.092 289.396 647.4 289.396Q645.99 289.396 643.076 290.712Q642.7 290.9 642.465 290.383Q642.23 289.866 642.606 289.678L654.544 283.85Q654.7320000000001 283.85 654.7320000000001 283.85Q654.7320000000001 283.85 654.826 283.85Q655.1080000000001 283.85 655.3900000000001 284.08500000000004Q655.672 284.32 655.672 284.602V344.386Q655.672 348.334 656.8 349.603Q657.928 350.872 661.594 350.872Q661.876 350.872 661.876 351.43600000000004Q661.876 352.0 661.594 352.0Q659.902 352.0 657.74 351.906Q655.578 351.812 653.0400000000001 351.812Q650.596 351.812 648.34 351.906Q646.0840000000001 352.0 644.486 352.0ZM669.772 352.0Q669.49 352.0 669.49 351.43600000000004Q669.49 350.872 669.772 350.872Q673.438 350.872 674.566 349.603Q675.6940000000001 348.334 675.6940000000001 344.386V329.44Q675.6940000000001 318.442 667.046 318.442Q663.568 318.442 659.996 320.651Q656.424 322.86 653.8860000000001 326.62L653.51 325.492Q657.6460000000001 319.852 661.7350000000001 317.31399999999996Q665.8240000000001 314.776 670.148 314.776Q675.318 314.776 678.138 317.64300000000003Q680.9580000000001 320.51 680.9580000000001 326.15V344.386Q680.9580000000001 348.334 682.086 349.603Q683.214 350.872 686.88 350.872Q687.162 350.872 687.162 351.43600000000004Q687.162 352.0 686.88 352.0Q685.188 352.0 683.0260000000001 351.906Q680.864 351.812 678.326 351.812Q675.8820000000001 351.812 673.626 351.906Q671.37 352.0 669.772 352.0Z M721.754 352.564Q721.378 352.752 721.0020000000001 352.752Q719.7800000000001 352.752 718.652 350.731Q717.5240000000001 348.71 717.5240000000001 344.856V327.09Q717.5240000000001 321.262 715.8790000000001 318.91200000000003Q714.234 316.562 711.6020000000001 316.562Q709.2520000000001 316.562 707.748 317.73699999999997Q706.244 318.912 705.539 320.51Q704.8340000000001 322.108 704.552 323.51800000000003Q704.2700000000001 324.834 703.6120000000001 326.103Q702.9540000000001 327.372 700.98 327.372Q699.3820000000001 327.372 698.6300000000001 326.47900000000004Q697.878 325.586 697.878 324.552Q697.878 322.766 699.6170000000001 321.074Q701.3560000000001 319.382 704.0350000000001 317.925Q706.714 316.468 709.6750000000001 315.622Q712.6360000000001 314.776 714.9860000000001 314.776Q718.84 314.776 720.8140000000001 317.267Q722.788 319.758 722.788 324.27V341.848Q722.788 345.138 723.634 346.642Q724.48 348.146 726.36 348.146Q728.052 348.146 731.0600000000001 346.924Q731.5300000000001 346.736 731.7180000000001 347.253Q731.9060000000001 347.77 731.436 347.958ZM704.8340000000001 352.658Q701.2620000000001 352.658 699.3820000000001 350.731Q697.5020000000001 348.804 697.5020000000001 346.172Q697.5020000000001 344.292 698.489 342.741Q699.4760000000001 341.19 701.6380000000001 339.874Q703.8000000000001 338.558 707.1840000000001 337.336L718.464 333.106L718.7460000000001 334.328L708.782 338.182Q707.09 338.84 705.962 339.686Q704.8340000000001 340.532 704.317 341.56600000000003Q703.8000000000001 342.6 703.8000000000001 343.822Q703.8000000000001 345.984 705.21 347.582Q706.62 349.18 709.0640000000001 349.18Q710.004 349.18 711.038 348.898Q712.072 348.616 713.576 347.676L719.498 344.104L719.686 345.326L712.73 349.838Q710.474 351.342 708.6410000000001 352.0Q706.8080000000001 352.658 704.8340000000001 352.658Z M752.586 353.128Q750.33 353.128 748.262 352.423Q746.194 351.718 744.8779999999999 350.026Q743.562 348.334 743.562 345.42V323.33Q743.562 321.074 743.28 319.946Q742.9979999999999 318.818 741.9639999999999 318.489Q740.93 318.15999999999997 738.768 318.15999999999997Q738.3919999999999 318.15999999999997 738.3919999999999 317.549Q738.3919999999999 316.938 738.768 316.938Q742.528 316.844 744.925 314.87Q747.322 312.896 747.604 309.794Q747.604 309.512 748.309 309.512Q749.014 309.512 749.014 309.794V342.224Q749.014 346.078 750.941 347.95799999999997Q752.8679999999999 349.838 756.4399999999999 349.838Q758.884 349.838 760.8109999999999 349.039Q762.7379999999999 348.24 763.96 347.206Q764.336 347.018 764.665 347.441Q764.994 347.864 764.6179999999999 348.146Q761.14 350.778 758.367 351.953Q755.5939999999999 353.128 752.586 353.128ZM761.704 320.322Q758.038 319.382 754.654 319.1Q751.27 318.818 747.4159999999999 318.818V316.75Q751.1759999999999 316.75 754.654 316.46799999999996Q758.132 316.186 762.08 315.81Q762.268 315.81 762.5029999999999 316.46799999999996Q762.7379999999999 317.126 762.7379999999999 318.06600000000003Q762.7379999999999 318.724 762.409 319.57Q762.08 320.416 761.704 320.322Z" fill="#0F3F6F"/><line x1="372.0" y1="392" x2="528.0" y2="392" stroke="#0F3F6F" stroke-width="1.1" opacity="0.35"/><path d="M324.80749999999995 417.445 329.36749999999995 424.0H331.36249999999995L326.61249999999995 417.445ZM322.43249999999995 410.7V424.0H324.04749999999996V410.7ZM323.3255 412.125H326.04249999999996Q326.8975 412.125 327.553 412.429Q328.20849999999996 412.733 328.57899999999995 413.303Q328.94949999999994 413.873 328.94949999999994 414.69Q328.94949999999994 415.507 328.57899999999995 416.077Q328.20849999999996 416.647 327.553 416.951Q326.8975 417.255 326.04249999999996 417.255H323.3255V418.68H326.04249999999996Q327.3345 418.68 328.351 418.19550000000004Q329.36749999999995 417.711 329.96599999999995 416.8085Q330.56449999999995 415.906 330.56449999999995 414.69Q330.56449999999995 413.455 329.96599999999995 412.562Q329.36749999999995 411.669 328.351 411.18449999999996Q327.3345 410.7 326.04249999999996 410.7H323.3255Z M339.53249999999997 410.7V424.0H341.1475V410.7Z M351.14149999999995 419.972 349.8494999999999 420.846Q350.28649999999993 421.72 350.9799999999999 422.4895Q351.67349999999993 423.259 352.5949999999999 423.72450000000003Q353.51649999999995 424.19 354.5994999999999 424.19Q355.3974999999999 424.19 356.1289999999999 423.924Q356.86049999999994 423.658 357.43999999999994 423.164Q358.01949999999994 422.67 358.352 421.967Q358.68449999999996 421.264 358.68449999999996 420.39Q358.68449999999996 419.478 358.3615 418.8225Q358.03849999999994 418.167 357.53499999999997 417.7015Q357.03149999999994 417.236 356.44249999999994 416.932Q355.85349999999994 416.628 355.32149999999996 416.438Q354.16249999999997 416.039 353.48799999999994 415.6305Q352.8134999999999 415.222 352.5284999999999 414.75649999999996Q352.2434999999999 414.291 352.2434999999999 413.74Q352.2434999999999 413.094 352.73749999999995 412.5715Q353.2314999999999 412.049 354.31449999999995 412.049Q355.09349999999995 412.049 355.63499999999993 412.35299999999995Q356.1764999999999 412.657 356.5564999999999 413.132Q356.93649999999997 413.607 357.1834999999999 414.101L358.5704999999999 413.303Q358.24749999999995 412.6 357.67749999999995 411.9635Q357.10749999999996 411.327 356.29999999999995 410.9185Q355.49249999999995 410.51 354.4094999999999 410.51Q353.28849999999994 410.51 352.4145 410.9565Q351.54049999999995 411.403 351.0464999999999 412.182Q350.55249999999995 412.961 350.55249999999995 413.949Q350.55249999999995 414.861 350.90399999999994 415.488Q351.2554999999999 416.115 351.8064999999999 416.5425Q352.35749999999996 416.97 352.96549999999996 417.2455Q353.57349999999997 417.521 354.06749999999994 417.692Q354.82749999999993 417.958 355.50199999999995 418.2905Q356.1764999999999 418.623 356.5944999999999 419.155Q357.01249999999993 419.687 357.01249999999993 420.58Q357.01249999999993 421.492 356.3665 422.081Q355.72049999999996 422.67 354.65649999999994 422.67Q353.85849999999994 422.67 353.2314999999999 422.328Q352.6044999999999 421.986 352.10099999999994 421.378Q351.59749999999997 420.77 351.14149999999995 419.972Z M367.51949999999994 410.7V424.0H369.13449999999995V410.7ZM374.35949999999997 410.7 368.6405 416.97 374.64449999999994 424.0H376.63949999999994L370.59749999999997 416.932L376.3545 410.7Z M395.54449999999997 412.22H398.9645V424.0H400.5795V412.22H403.99949999999995V410.7H395.54449999999997Z M413.0625 417.54H422.1825V416.02H413.0625ZM421.0995 410.7V424.0H422.7145V410.7ZM412.16949999999997 410.7V424.0H413.7845V410.7Z M433.10749999999996 424.0H439.81449999999995V422.48H433.10749999999996ZM433.10749999999996 412.22H439.81449999999995V410.7H433.10749999999996ZM433.10749999999996 417.54H439.43449999999996V416.02H433.10749999999996ZM432.21449999999993 410.7V424.0H433.82949999999994V410.7Z M461.2845 410.7V424.0H462.8995V410.7ZM462.1775 412.22H464.8945Q466.1865 412.22 466.994 412.8375Q467.8015 413.455 467.8015 414.69Q467.8015 415.906 466.994 416.533Q466.1865 417.16 464.8945 417.16H462.1775V418.68H464.8945Q466.1865 418.68 467.203 418.19550000000004Q468.2195 417.711 468.818 416.8085Q469.4165 415.906 469.4165 414.69Q469.4165 413.455 468.818 412.562Q468.2195 411.669 467.203 411.18449999999996Q466.1865 410.7 464.8945 410.7H462.1775Z M479.1065 417.35Q479.1065 415.849 479.76199999999994 414.671Q480.41749999999996 413.493 481.55749999999995 412.80899999999997Q482.69749999999993 412.125 484.14149999999995 412.125Q485.6045 412.125 486.73499999999996 412.80899999999997Q487.86549999999994 413.493 488.52099999999996 414.671Q489.1765 415.849 489.1765 417.35Q489.1765 418.851 488.52099999999996 420.029Q487.86549999999994 421.207 486.73499999999996 421.89099999999996Q485.6045 422.575 484.14149999999995 422.575Q482.69749999999993 422.575 481.55749999999995 421.89099999999996Q480.41749999999996 421.207 479.76199999999994 420.029Q479.1065 418.851 479.1065 417.35ZM477.39649999999995 417.35Q477.39649999999995 418.794 477.9 420.048Q478.40349999999995 421.302 479.31549999999993 422.2235Q480.22749999999996 423.145 481.4625 423.6675Q482.69749999999993 424.19 484.14149999999995 424.19Q485.6045 424.19 486.8299999999999 423.6675Q488.05549999999994 423.145 488.9675 422.2235Q489.87949999999995 421.302 490.3829999999999 420.048Q490.88649999999996 418.794 490.88649999999996 417.35Q490.88649999999996 415.887 490.3829999999999 414.64250000000004Q489.87949999999995 413.398 488.9675 412.4765Q488.05549999999994 411.555 486.8299999999999 411.0325Q485.6045 410.51 484.14149999999995 410.51Q482.69749999999993 410.51 481.4625 411.0325Q480.22749999999996 411.555 479.31549999999993 412.4765Q478.40349999999995 413.398 477.9 414.64250000000004Q477.39649999999995 415.887 477.39649999999995 417.35Z M500.1205 419.972 498.82849999999996 420.846Q499.2655 421.72 499.95899999999995 422.4895Q500.6525 423.259 501.57399999999996 423.72450000000003Q502.4955 424.19 503.57849999999996 424.19Q504.37649999999996 424.19 505.10799999999995 423.924Q505.8395 423.658 506.419 423.164Q506.9985 422.67 507.331 421.967Q507.6635 421.264 507.6635 420.39Q507.6635 419.478 507.3405 418.8225Q507.0175 418.167 506.514 417.7015Q506.0105 417.236 505.4215 416.932Q504.8325 416.628 504.3005 416.438Q503.1415 416.039 502.467 415.6305Q501.79249999999996 415.222 501.50749999999994 414.75649999999996Q501.22249999999997 414.291 501.22249999999997 413.74Q501.22249999999997 413.094 501.7165 412.5715Q502.21049999999997 412.049 503.2935 412.049Q504.0725 412.049 504.614 412.35299999999995Q505.15549999999996 412.657 505.53549999999996 413.132Q505.9155 413.607 506.16249999999997 414.101L507.54949999999997 413.303Q507.2265 412.6 506.6565 411.9635Q506.0865 411.327 505.279 410.9185Q504.4715 410.51 503.38849999999996 410.51Q502.2675 410.51 501.3935 410.9565Q500.5195 411.403 500.02549999999997 412.182Q499.5315 412.961 499.5315 413.949Q499.5315 414.861 499.883 415.488Q500.23449999999997 416.115 500.78549999999996 416.5425Q501.3365 416.97 501.9445 417.2455Q502.5525 417.521 503.0465 417.692Q503.80649999999997 417.958 504.481 418.2905Q505.15549999999996 418.623 505.57349999999997 419.155Q505.9915 419.687 505.9915 420.58Q505.9915 421.492 505.3455 422.081Q504.6995 422.67 503.6355 422.67Q502.8375 422.67 502.21049999999997 422.328Q501.58349999999996 421.986 501.08 421.378Q500.5765 420.77 500.1205 419.972Z M516.9925 419.972 515.7004999999999 420.846Q516.1374999999999 421.72 516.8309999999999 422.4895Q517.5245 423.259 518.4459999999999 423.72450000000003Q519.3675 424.19 520.4504999999999 424.19Q521.2484999999999 424.19 521.9799999999999 423.924Q522.7114999999999 423.658 523.2909999999999 423.164Q523.8705 422.67 524.203 421.967Q524.5355 421.264 524.5355 420.39Q524.5355 419.478 524.2124999999999 418.8225Q523.8894999999999 418.167 523.386 417.7015Q522.8824999999999 417.236 522.2935 416.932Q521.7044999999999 416.628 521.1724999999999 416.438Q520.0134999999999 416.039 519.3389999999999 415.6305Q518.6645 415.222 518.3795 414.75649999999996Q518.0944999999999 414.291 518.0944999999999 413.74Q518.0944999999999 413.094 518.5885 412.5715Q519.0825 412.049 520.1655 412.049Q520.9445 412.049 521.4859999999999 412.35299999999995Q522.0274999999999 412.657 522.4074999999999 413.132Q522.7874999999999 413.607 523.0345 414.101L524.4214999999999 413.303Q524.0985 412.6 523.5284999999999 411.9635Q522.9585 411.327 522.151 410.9185Q521.3435 410.51 520.2605 410.51Q519.1394999999999 410.51 518.2655 410.9565Q517.3915 411.403 516.8974999999999 412.182Q516.4034999999999 412.961 516.4034999999999 413.949Q516.4034999999999 414.861 516.7549999999999 415.488Q517.1065 416.115 517.6575 416.5425Q518.2085 416.97 518.8164999999999 417.2455Q519.4245 417.521 519.9185 417.692Q520.6785 417.958 521.353 418.2905Q522.0274999999999 418.623 522.4454999999999 419.155Q522.8634999999999 419.687 522.8634999999999 420.58Q522.8634999999999 421.492 522.2175 422.081Q521.5714999999999 422.67 520.5074999999999 422.67Q519.7094999999999 422.67 519.0825 422.328Q518.4554999999999 421.986 517.952 421.378Q517.4485 420.77 516.9925 419.972Z M533.3705 410.7V424.0H534.9855V410.7Z M545.7585 416.97H547.9055000000001Q549.1025 416.97 549.986 416.62800000000004Q550.8695 416.286 551.3635 415.621Q551.8575000000001 414.956 551.8575000000001 414.025Q551.8575000000001 412.885 551.3635 412.1535Q550.8695 411.422 549.986 411.06100000000004Q549.1025 410.7 547.9055000000001 410.7H544.4855V424.0H548.0955Q549.3875 424.0 550.404 423.5725Q551.4205000000001 423.145 552.019 422.28049999999996Q552.6175000000001 421.416 552.6175000000001 420.105Q552.6175000000001 419.193 552.2755 418.528Q551.9335 417.863 551.316 417.4355Q550.6985 417.008 549.8815 416.799Q549.0645000000001 416.59 548.0955 416.59H545.7585V417.483H548.0955Q548.7415 417.483 549.2735 417.6445Q549.8055 417.806 550.195 418.129Q550.5845 418.452 550.7935 418.927Q551.0025 419.402 551.0025 420.01Q551.0025 420.827 550.6320000000001 421.397Q550.2615000000001 421.967 549.606 422.27099999999996Q548.9505 422.575 548.0955 422.575H546.1005V412.125H547.9055000000001Q548.9125 412.125 549.5775000000001 412.64750000000004Q550.2425000000001 413.17 550.2425000000001 414.12Q550.2425000000001 414.747 549.9385 415.18399999999997Q549.6345 415.621 549.1025 415.849Q548.5705 416.077 547.9055000000001 416.077H545.7585Z M561.5474999999999 410.7V424.0H568.3874999999999V422.48H563.1624999999999V410.7Z M577.4504999999999 424.0H584.1574999999999V422.48H577.4504999999999ZM577.4504999999999 412.22H584.1574999999999V410.7H577.4504999999999ZM577.4504999999999 417.54H583.7774999999999V416.02H577.4504999999999ZM576.5574999999999 410.7V424.0H578.1724999999999V410.7Z" fill="#0F3F6F" opacity="0.8"/></svg>